<svg xmlns="http://www.w3.org/2000/svg" width="1200" height="630" viewBox="0 0 1200 630" role="img" aria-labelledby="title desc">
  <title id="title">Unfollowr Dashboard</title>
  <desc id="desc">A dark social analytics card with audience trend panels.</desc>
  <defs>
    <linearGradient id="bg" x1="0" y1="0" x2="1" y2="1">
      <stop offset="0" stop-color="#111827"/>
      <stop offset="1" stop-color="#312e81"/>
    </linearGradient>
    <linearGradient id="accent" x1="0" y1="0" x2="1" y2="0">
      <stop offset="0" stop-color="#38bdf8"/>
      <stop offset="1" stop-color="#f472b6"/>
    </linearGradient>
  </defs>
  <rect width="1200" height="630" fill="url(#bg)"/>
  <rect x="72" y="72" width="1056" height="486" rx="36" fill="#0f172a" opacity="0.88"/>
  <circle cx="144" cy="144" r="42" fill="url(#accent)"/>
  <path d="M126 144h36M144 126v36" stroke="#fff" stroke-width="10" stroke-linecap="round"/>
  <text x="216" y="153" fill="#f8fafc" font-family="Inter, Arial, sans-serif" font-size="56" font-weight="800">Unfollowr</text>
  <text x="216" y="206" fill="#cbd5e1" font-family="Inter, Arial, sans-serif" font-size="26">Audience changes, cleaned up.</text>
  <rect x="144" y="276" width="250" height="152" rx="22" fill="#1e293b"/>
  <rect x="446" y="276" width="250" height="152" rx="22" fill="#1e293b"/>
  <rect x="748" y="276" width="250" height="152" rx="22" fill="#1e293b"/>
  <text x="176" y="330" fill="#94a3b8" font-family="Inter, Arial, sans-serif" font-size="22">Unfollows</text>
  <text x="176" y="386" fill="#f472b6" font-family="Inter, Arial, sans-serif" font-size="54" font-weight="800">-128</text>
  <text x="478" y="330" fill="#94a3b8" font-family="Inter, Arial, sans-serif" font-size="22">Net change</text>
  <text x="478" y="386" fill="#38bdf8" font-family="Inter, Arial, sans-serif" font-size="54" font-weight="800">+4.8%</text>
  <text x="780" y="330" fill="#94a3b8" font-family="Inter, Arial, sans-serif" font-size="22">Watchlist</text>
  <text x="780" y="386" fill="#f8fafc" font-family="Inter, Arial, sans-serif" font-size="54" font-weight="800">Clean</text>
  <path d="M150 490c80-80 146 42 224-20s143-56 214-18 120 31 184-20 122-21 212 28" fill="none" stroke="url(#accent)" stroke-width="12" stroke-linecap="round"/>
</svg>
